<?xml version="1.0" encoding="UTF-8"?>
<svg width="980px" height="400px" viewBox="0 0 980 400" version="1.1" xmlns="http://www.w3.org/2000/svg" xmlns:xlink="http://www.w3.org/1999/xlink">
    <!-- Generator: Sketch 47.1 (45422) - http://www.bohemiancoding.com/sketch -->
    <title>Slice 1</title>
    <desc>Created with Sketch.</desc>
    <defs></defs>
    <g id="Page-1" stroke="none" stroke-width="1" fill="none" fill-rule="evenodd">
        <path d="M490.299363,57.0414519 L366.5,128.517047 L366.5,271.468239 L490.299363,342.943834 L614.098726,271.468239 L614.098726,128.517047 L490.299363,57.0414519 Z" id="Polygon" stroke="#343334" stroke-width="7"></path>
        <g id="noun_947849_cc" transform="translate(425.000000, 143.000000)" fill-rule="nonzero" fill="#343334">
            <path d="M12.332,44.1418605 C12.332,43.3465116 11.672,42.5511628 10.748,42.5511628 L1.772,42.5511628 C0.98,42.5511628 0.188,43.2139535 0.188,44.1418605 L0.188,111.746512 C0.188,112.54186 0.848,113.337209 1.772,113.337209 L10.748,113.337209 C11.54,113.337209 12.332,112.674419 12.332,111.746512 L12.332,98.4906977 L117.668,98.4906977 L117.668,111.746512 C117.668,112.54186 118.328,113.337209 119.252,113.337209 L128.228,113.337209 C129.02,113.337209 129.812,112.674419 129.812,111.746512 L129.812,86.427907 L12.464,86.427907 L12.464,44.1418605 L12.332,44.1418605 Z" id="Shape"></path>
            <ellipse id="Oval" cx="31.34" cy="67.472093" rx="13.86" ry="13.9186047"></ellipse>
            <path d="M100.508,51.9627907 L51.8,51.9627907 C51.008,51.9627907 50.216,52.6255814 50.216,53.5534884 L50.216,81.3906977 L129.68,81.3906977 C129.68,65.0860465 116.612,51.9627907 100.508,51.9627907 Z" id="Shape"></path>
            <path d="M30.68,42.9488372 L44.672,42.9488372 C45.332,42.9488372 45.86,42.4186047 45.86,41.755814 L45.86,37.5139535 C45.86,36.8511628 45.332,36.3209302 44.672,36.3209302 L38.072,36.3209302 L45.332,22.6674419 C46.124,21.2093023 45.068,19.6186047 43.484,19.6186047 L30.548,19.6186047 C29.888,19.6186047 29.36,20.1488372 29.36,20.8116279 L29.36,25.0534884 C29.36,25.7162791 29.888,26.2465116 30.548,26.2465116 L36.224,26.2465116 L28.964,39.9 C28.04,41.2255814 29.096,42.9488372 30.68,42.9488372 Z" id="Shape"></path>
            <path d="M54.44,29.5604651 L65.924,29.5604651 C66.584,29.5604651 67.112,29.0302326 67.112,28.3674419 L67.112,25.3186047 C67.112,24.655814 66.584,24.1255814 65.924,24.1255814 L60.644,24.1255814 L66.716,12.8581395 C67.376,11.6651163 66.452,10.3395349 65.132,10.3395349 L54.572,10.3395349 C53.912,10.3395349 53.384,10.8697674 53.384,11.5325581 L53.384,14.5813953 C53.384,15.244186 53.912,15.7744186 54.572,15.7744186 L59.06,15.7744186 L52.988,27.0418605 C52.196,28.1023256 53.12,29.5604651 54.44,29.5604651 Z" id="Shape"></path>
            <path d="M75.164,16.172093 L84.14,16.172093 C84.8,16.172093 85.328,15.6418605 85.328,14.9790698 L85.328,12.9906977 C85.328,12.327907 84.8,11.7976744 84.14,11.7976744 L80.048,11.7976744 L84.932,2.78372093 C85.46,1.85581395 84.8,0.662790698 83.744,0.662790698 L75.428,0.662790698 C74.768,0.662790698 74.24,1.19302326 74.24,1.85581395 L74.24,3.84418605 C74.24,4.50697674 74.768,5.0372093 75.428,5.0372093 L78.728,5.0372093 L73.844,14.0511628 C73.448,14.9790698 74.108,16.172093 75.164,16.172093 Z" id="Shape"></path>
        </g>
    </g>
</svg>